<svg xmlns="http://www.w3.org/2000/svg" width="15" height="15" viewBox="0 0 15 15">
    <path fill="#1D4CA6" fill-rule="nonzero" d="M7.648 15h-.15a52.14 52.14 0 0 1-3.318-.092c-.969-.058-1.853-.393-2.557-.967-.68-.555-1.144-1.304-1.38-2.227C.038 10.91.027 10.12.017 9.358.009 8.81.002 8.16 0 7.5.002 6.84.01 6.19.017 5.642c.01-.763.021-1.552.226-2.356.236-.923.7-1.672 1.38-2.227C2.327.485 3.21.15 4.18.092A52.26 52.26 0 0 1 7.5 0a52.474 52.474 0 0 1 3.319.092c.968.058 1.853.393 2.557.967.68.555 1.143 1.304 1.38 2.227.204.804.215 1.593.225 2.356.008.548.016 1.197.017 1.857V7.5c-.001.66-.009 1.31-.017 1.857-.01.763-.02 1.552-.226 2.356-.236.923-.7 1.672-1.38 2.227-.703.574-1.588.909-2.556.967A51.868 51.868 0 0 1 7.648 15zm-.15-1.172a51.15 51.15 0 0 0 3.25-.09c.733-.044 1.368-.281 1.888-.706.481-.392.812-.933.985-1.608.17-.67.18-1.388.19-2.082.007-.544.015-1.189.017-1.842a165.04 165.04 0 0 0-.017-1.842c-.01-.694-.02-1.413-.19-2.082-.173-.675-.504-1.216-.985-1.608-.52-.425-1.155-.662-1.887-.707A51.201 51.201 0 0 0 7.5 1.172a51.063 51.063 0 0 0-3.25.09c-.733.044-1.368.281-1.888.706-.48.392-.812.933-.984 1.608-.171.67-.18 1.387-.19 2.082-.008.545-.016 1.19-.017 1.843.001.652.01 1.296.017 1.84.01.695.019 1.414.19 2.083.172.675.503 1.216.984 1.608.52.424 1.155.662 1.888.707 1.031.062 2.094.092 3.247.089zm-.028-2.666A3.666 3.666 0 0 1 3.808 7.5 3.666 3.666 0 0 1 7.47 3.838 3.666 3.666 0 0 1 11.132 7.5a3.666 3.666 0 0 1-3.662 3.662zm0-6.152A2.493 2.493 0 0 0 4.98 7.5a2.493 2.493 0 0 0 2.49 2.49A2.493 2.493 0 0 0 9.96 7.5a2.493 2.493 0 0 0-2.49-2.49zm4.073-2.344a.879.879 0 1 0 0 1.758.879.879 0 0 0 0-1.758z"/>
</svg>
