<svg xmlns="http://www.w3.org/2000/svg" width="22" height="12" viewBox="0 0 22 12">
    <path fill="#1D4CA6" fill-rule="nonzero" d="M20.567 9.202c-.457-.536-.973-1.015-1.472-1.478-.175-.163-.357-.331-.532-.498-.235-.225-.35-.385-.362-.502-.012-.116.07-.288.255-.542.277-.381.573-.764.86-1.134.254-.328.517-.668.77-1.01l.056-.077c.492-.667 1-1.357 1.273-2.198.078-.241.159-.598-.036-.911-.195-.313-.557-.406-.812-.449a2.09 2.09 0 0 0-.352-.022L17.023.378c-.551-.009-.934.247-1.143.762-.167.41-.364.887-.592 1.339-.437.872-.992 1.877-1.797 2.714l-.036.037c-.055.057-.144.151-.19.173-.088-.054-.188-.361-.184-.522v-.012l-.002-3.613a.404.404 0 0 0-.004-.055C13.003.686 12.864.169 12.03.008a.425.425 0 0 0-.08-.008H8.63c-.625 0-.955.28-1.22.584-.077.089-.28.324-.177.611.105.291.418.35.52.368.363.068.55.268.608.651.114.744.128 1.54.044 2.504a2.006 2.006 0 0 1-.138.62.472.472 0 0 1-.049.09.489.489 0 0 1-.09-.05c-.254-.17-.446-.436-.63-.692-.74-1.024-1.363-2.155-1.904-3.457-.223-.534-.641-.832-1.178-.84a81.146 81.146 0 0 0-2.89.001C1.092.398.787.532.621.79c-.167.258-.161.586.018.977 1.28 2.788 2.441 4.816 3.767 6.576.933 1.239 1.873 2.1 2.957 2.707 1.139.638 2.423.951 3.913.951.17 0 .342-.004.517-.012.919-.041 1.293-.4 1.334-1.277.023-.464.075-.84.258-1.165.051-.092.109-.153.154-.164.049-.012.134.017.23.078a2.4 2.4 0 0 1 .447.393c.125.134.251.272.374.406.26.285.529.58.81.862.638.636 1.373.929 2.186.867l2.92.002.028-.001a.985.985 0 0 0 .8-.502c.206-.357.202-.81-.009-1.211-.22-.417-.506-.776-.758-1.074zm.038 1.882c-.04.07-.09.083-.115.086l-2.92-.001-.035.001c-.575.047-1.064-.151-1.537-.623a24.71 24.71 0 0 1-.785-.834c-.123-.136-.251-.276-.38-.414a3.16 3.16 0 0 0-.609-.527c-.379-.24-.693-.234-.89-.185-.194.048-.47.185-.682.565-.275.49-.336 1.02-.36 1.52-.015.307-.068.388-.09.408-.029.027-.126.075-.448.09-1.55.07-2.85-.201-3.976-.833C6.798 9.788 5.941 9 5.08 7.855 3.79 6.144 2.656 4.162 1.402 1.43a.685.685 0 0 1-.063-.194.728.728 0 0 1 .204-.026 80.405 80.405 0 0 1 2.861-.001c.139.002.297.043.416.33.565 1.36 1.218 2.545 1.996 3.62.206.286.463.642.84.895.347.232.628.221.802.171.175-.05.417-.19.58-.569.106-.244.17-.519.201-.866.09-1.031.074-1.888-.05-2.697-.088-.58-.393-.998-.874-1.211A.666.666 0 0 1 8.631.82h3.276c.184.04.22.088.233.104.053.07.084.233.102.36l.003 3.58c-.007.344.163 1.105.742 1.314l.015.005c.527.169.876-.196 1.064-.392l.033-.035c.882-.917 1.475-1.989 1.94-2.914.241-.478.446-.973.619-1.4.086-.213.165-.248.353-.244h.008l3.196.003c.074 0 .151 0 .212.01a.684.684 0 0 1 .235.07.643.643 0 0 1-.044.234c-.232.715-.68 1.323-1.154 1.966l-.057.077c-.246.334-.506.67-.758.995-.29.375-.59.762-.874 1.153-.607.83-.554 1.382.204 2.106.18.172.363.342.54.507.505.468.98.91 1.405 1.408.222.263.474.578.658.925.096.182.072.347.023.432z"/>
</svg>
