<svg xmlns="http://www.w3.org/2000/svg" width="57" height="57" viewBox="0 0 57 57">
    <g fill="#1D4CA6" fill-rule="nonzero">
        <path d="M50.246 54.985a2.844 2.844 0 0 1-2.844-2.844.948.948 0 0 0-1.896 0 2.844 2.844 0 0 1-5.688 0 .948.948 0 0 0-1.897 0 2.844 2.844 0 0 1-5.688 0 .948.948 0 0 0-1.896 0 2.844 2.844 0 0 1-5.688 0 .948.948 0 0 0-1.896 0 2.844 2.844 0 0 1-5.688 0 .948.948 0 0 0-1.896 0 2.844 2.844 0 0 1-5.688 0 .948.948 0 0 0-1.896 0 2.844 2.844 0 0 1-5.688 0 .948.948 0 0 0-1.897 0 4.726 4.726 0 0 0 8.533 2.815 4.697 4.697 0 0 0 7.584 0 4.697 4.697 0 0 0 7.584 0 4.697 4.697 0 0 0 7.584 0 4.697 4.697 0 0 0 7.584 0 4.697 4.697 0 0 0 7.585 0 4.722 4.722 0 0 0 3.792 1.925.948.948 0 0 0 0-1.896zM35.077 48.35c0 .523.425.947.948.947a3.768 3.768 0 0 0 2.844-1.31 3.741 3.741 0 0 0 5.689 0 3.767 3.767 0 0 0 2.844 1.31.948.948 0 0 0 0-1.896 1.896 1.896 0 0 1-1.896-1.896.948.948 0 0 0-1.896 0 1.896 1.896 0 0 1-3.792 0 .948.948 0 0 0-1.897 0 1.896 1.896 0 0 1-1.896 1.896.948.948 0 0 0-.948.948zM55.934 44.557a.948.948 0 0 0-.948.948 1.896 1.896 0 0 1-1.896 1.896.948.948 0 0 0 0 1.896 3.792 3.792 0 0 0 3.792-3.792.948.948 0 0 0-.948-.948zM26.545 45.505a1.896 1.896 0 0 1-1.896 1.896.948.948 0 0 0 0 1.896 3.768 3.768 0 0 0 2.844-1.31 3.776 3.776 0 0 0 6.636-2.482.948.948 0 0 0-1.896 0 1.896 1.896 0 0 1-3.792 0 .948.948 0 0 0-1.896 0zM7.585 49.297a3.768 3.768 0 0 0 2.844-1.31 3.741 3.741 0 0 0 5.688 0 3.776 3.776 0 0 0 6.636-2.482.948.948 0 0 0-1.896 0 1.896 1.896 0 0 1-3.792 0 .948.948 0 0 0-1.896 0 1.896 1.896 0 0 1-3.792 0 .948.948 0 0 0-1.896 0 1.896 1.896 0 0 1-1.896 1.896.948.948 0 0 0 0 1.896z"/>
        <path d="M42.1 35.04a10.46 10.46 0 0 0-9.867-7.073 10.354 10.354 0 0 0-7.787 3.508c-.416-.12-.862-.228-1.347-.328a15.782 15.782 0 0 0-3.19-.336c-.38 0-.786.022-1.204.058a19.065 19.065 0 0 1-.692-5.049 18.843 18.843 0 0 1 3.609-11.126L40.28 25.471a.948.948 0 0 0 1.422-.786A15.146 15.146 0 0 0 26.848 8.947l1.043-.603 8.45-4.877a.949.949 0 0 0 .03-1.624 11.977 11.977 0 0 0-17.273 5.16A10.32 10.32 0 0 0 4.237 2.665a.948.948 0 0 0 .03 1.624l8.075 4.662A12.7 12.7 0 0 0 .01 22.142a.948.948 0 0 0 1.422.785l11.536-6.66a20.914 20.914 0 0 0-3.65 18.553 16.028 16.028 0 0 0-5.525 12.107c0 .114.007.225.014.336l.01.166c.014.512.434.92.947.92h.03a.948.948 0 0 0 .92-.974c0-.082-.008-.164-.014-.244-.006-.08-.011-.134-.011-.204a14.138 14.138 0 0 1 4.29-10.153 20.92 20.92 0 0 0 1.784 3.55.949.949 0 0 0 1.605-1.012 18.967 18.967 0 0 1-1.647-3.287h1.552a.948.948 0 0 0 0-1.896h-2.175c-.25-.927-.429-1.87-.537-2.824h2.515a.948.948 0 0 0 0-1.896h-2.638c0-.086-.01-.171-.01-.257.001-.872.06-1.744.179-2.607h1.718a.948.948 0 0 0 0-1.896h-1.35a18.95 18.95 0 0 1 7.9-11.309c.03 0 .062.012.094.012a.961.961 0 0 0 .26-.038l.747.432c-5.86 8.252-4.962 19.518 2.134 26.735a.949.949 0 0 0 1.354-1.328 18.998 18.998 0 0 1-4.147-6.425c.2-.01.403-.021.593-.021.944.003 1.886.102 2.81.295.591.117 1.174.271 1.745.46a.948.948 0 0 0 1.052-.314 8.517 8.517 0 0 1 14.923 2.94.948.948 0 0 0 .707.669 10.49 10.49 0 0 1 8.15 10.17c0 .077-.005.152-.01.227l-.012.208a.948.948 0 0 0 .908.987h.04c.509 0 .927-.4.948-.909l.008-.157c.009-.118.017-.236.017-.356a12.406 12.406 0 0 0-9.097-11.887zm-8.912-22.424a13.238 13.238 0 0 1 6.582 10.37l-4.503-2.603.948-1.642a.948.948 0 1 0-1.642-.948l-.948 1.642-2.465-1.423.948-1.641a.947.947 0 1 0-1.642-.948l-.948 1.641-2.465-1.422.948-1.642a.948.948 0 1 0-1.642-.948l-.948 1.642-4.266-2.465 1.285-.742a13.241 13.241 0 0 1 10.756 1.13h.002zM24.95 3.25a10.066 10.066 0 0 1 8.953-.561l-2.95 1.706-.63-1.09a.949.949 0 0 0-1.642.948l.63 1.091-1.544.891-.63-1.091a.948.948 0 1 0-1.641.948l.629 1.091-1.544.892-.63-1.09a.948.948 0 1 0-1.643.947l.63 1.091-1.305.753c-.534.184-1.058.397-1.568.639 0-.02-.007-.039-.01-.059A10.05 10.05 0 0 1 24.95 3.25zm-10.962.853a8.444 8.444 0 0 1 4.125 5.992l-3.792-2.19.722-1.25a.947.947 0 1 0-1.642-.949l-.723 1.25-1.076-.62.723-1.252a.948.948 0 0 0-1.642-.948l-.728 1.252-3.219-1.86a8.446 8.446 0 0 1 7.252.576zM7.3 12.288a10.794 10.794 0 0 1 9.718-.552l-3.305 1.915-.703-1.217a.948.948 0 1 0-1.643.948l.704 1.217-1.756 1.01-.703-1.219a.948.948 0 1 0-1.643.948l.704 1.218L6.92 17.57l-.704-1.217a.948.948 0 1 0-1.643.948l.704 1.217-3.309 1.91a10.793 10.793 0 0 1 5.331-8.14zM43.61 8.532c1.047 0 1.896.85 1.896 1.896a.948.948 0 0 0 1.896 0c0-1.047.849-1.896 1.896-1.896a.948.948 0 0 0 0-1.896c-1.09 0-2.126.469-2.844 1.287a3.785 3.785 0 0 0-2.844-1.287.948.948 0 0 0 0 1.896zM53.09 18.012a.948.948 0 0 0 .948-.948c0-1.047.849-1.896 1.896-1.896a.948.948 0 0 0 0-1.896c-1.09 0-2.126.469-2.844 1.287a3.785 3.785 0 0 0-2.844-1.287.948.948 0 0 0 0 1.896c1.047 0 1.896.85 1.896 1.896 0 .524.424.948.948.948zM49.298 1.896c1.047 0 1.896.849 1.896 1.896a.948.948 0 0 0 1.896 0c0-1.047.849-1.896 1.896-1.896a.948.948 0 0 0 0-1.896c-1.09 0-2.126.468-2.844 1.286A3.785 3.785 0 0 0 49.298 0a.948.948 0 0 0 0 1.896z"/>
        <path d="M28.441 36.026a.948.948 0 1 1-1.896 0 .948.948 0 0 1 1.896 0zM36.973 37.922a.948.948 0 1 1-1.896 0 .948.948 0 0 1 1.896 0z"/>
    </g>
</svg>
