<svg xmlns="http://www.w3.org/2000/svg" width="56" height="56" viewBox="0 0 56 56">
    <path fill="#1D4CA6" fill-rule="nonzero" d="M55.17 9.262a2.71 2.71 0 0 0-.093-3.877 2.707 2.707 0 0 0 .696-1.815c0-1.5-1.221-2.72-2.722-2.72H39.938c-1.646 0-3.242.345-4.742 1.023a9.79 9.79 0 0 1-4.063.877H28.15v-.023a1.7 1.7 0 0 0-1.7-1.697h-9.391A2.714 2.714 0 0 0 13.038.78a2.707 2.707 0 0 0-3.784-.01 2.705 2.705 0 0 0-3.872.093A2.706 2.706 0 0 0 3.57.167 2.724 2.724 0 0 0 .851 2.89v13.13c0 1.647.344 3.243 1.021 4.744a9.839 9.839 0 0 1 .876 4.071v2.99H2.73a1.7 1.7 0 0 0-1.7 1.696v9.4a2.713 2.713 0 0 0-.25 4.024 2.708 2.708 0 0 0-.01 3.788 2.708 2.708 0 0 0 .093 3.878 2.706 2.706 0 0 0-.696 1.814c0 1.5 1.22 2.72 2.722 2.72h13.113c1.647 0 3.242-.345 4.742-1.024a9.793 9.793 0 0 1 4.063-.876h2.983v.023a1.7 1.7 0 0 0 1.7 1.697h9.385a2.712 2.712 0 0 0 4.024.256 2.708 2.708 0 0 0 3.784.01 2.706 2.706 0 0 0 3.874-.094c.509.448 1.172.696 1.81.696 1.5 0 2.719-1.221 2.719-2.723v-7.45a.821.821 0 0 0-1.644 0v7.45a1.08 1.08 0 0 1-1.075 1.082c-.438 0-1.055-.32-1.055-1.034 0-2.733-.02-8.624-.02-8.683v-.688a.82.82 0 0 0-1.644 0v9.49a1.08 1.08 0 0 1-1.075 1.082c-.541 0-.99-.406-1.063-.93.003-.052.005-.104.005-.156V44.46a.821.821 0 0 0-1.224-.716.82.82 0 0 0-.437.725v8.808c0 .05.002.1.005.15a1.078 1.078 0 0 1-1.063.928 1.08 1.08 0 0 1-1.075-1.082v-9.496a.82.82 0 0 0-1.644 0v9.496a1.08 1.08 0 0 1-1.075 1.082 1.08 1.08 0 0 1-1.075-1.082V37.656a.821.821 0 0 0-.99-.802H36.42v-1.366c0-.765.297-1.485.837-2.026l1.584-1.589a4.763 4.763 0 0 0 1.399-3.384v-.313h11.304v2.989c0 1.647.344 3.243 1.02 4.745a9.83 9.83 0 0 1 .877 4.07v1.853a.821.821 0 0 0 1.644 0V39.98c0-1.647-.344-3.243-1.02-4.744a9.83 9.83 0 0 1-.877-4.071v-2.99h.017a1.7 1.7 0 0 0 1.7-1.696v-9.403a2.714 2.714 0 0 0 .254-4.026 2.708 2.708 0 0 0 .01-3.788zM31.133 4.39c1.646 0 3.242-.344 4.742-1.022a9.793 9.793 0 0 1 4.063-.877H53.05a1.08 1.08 0 0 1 0 2.158h-9.693a.82.82 0 1 0 0 1.64h9.86a1.08 1.08 0 0 1 .15 2.147 3.094 3.094 0 0 0-.154-.005H44.41a.821.821 0 0 0-.716 1.222.822.822 0 0 0 .725.435h8.798c.05 0 .1-.002.149-.004a1.079 1.079 0 0 1-.153 2.145h-9.865a.82.82 0 1 0 0 1.641h9.865a1.08 1.08 0 0 1 0 2.158H37.616a.821.821 0 0 0-.804.99v2.52h-1.361c-.763 0-1.48-.297-2.02-.837l-1.587-1.586a4.756 4.756 0 0 0-3.384-1.401h-.31V4.39h2.983zM19.518 2.67v2.303a.821.821 0 0 0 1.644 0V2.671h5.288c.03 0 .056.025.056.056v14.717a.056.056 0 0 1-.056.057h-5.288V8.408a.821.821 0 0 0-1.644 0v9.093H17.69v-5.55a.819.819 0 0 0-.036-.245V2.727l-.002-.056h1.866zM3.371 20.09a9.83 9.83 0 0 1-.876-4.07V2.89A1.08 1.08 0 0 1 3.57 1.808 1.08 1.08 0 0 1 4.645 2.89v9.506a.82.82 0 0 0 1.644 0V2.723A1.08 1.08 0 0 1 7.364 1.64c.541 0 .99.406 1.063.93a2.66 2.66 0 0 0-.004.156v8.813a.82.82 0 0 0 1.223.716.82.82 0 0 0 .437-.725V2.723c0-.05-.002-.1-.005-.15a1.078 1.078 0 0 1 1.063-.928 1.08 1.08 0 0 1 1.075 1.082v9.678a.821.821 0 0 0 1.644 0V2.727a1.08 1.08 0 0 1 1.075-1.082 1.08 1.08 0 0 1 1.075 1.082v15.501l.002.055-.001.038c0 .427.328.778.746.817a.8.8 0 0 0 .112.008h2.647v1.366a2.85 2.85 0 0 1-.837 2.026l-1.584 1.589a4.762 4.762 0 0 0-1.399 3.384v.313H4.392v-2.989c0-1.647-.344-3.243-1.02-4.745zm-.697 9.431c0-.03.025-.056.057-.056h14.693c.031 0 .057.025.057.056v5.3H2.674v-5.3zm22.133 22.083a11.43 11.43 0 0 0-4.742 1.023 9.794 9.794 0 0 1-4.063.877H2.89a1.08 1.08 0 0 1 0-2.158h9.793a.821.821 0 1 0 0-1.64h-9.96a1.08 1.08 0 0 1-1.078-1.08c0-.543.404-.993.927-1.067.052.003.103.005.155.005h8.803a.821.821 0 0 0 .716-1.221.821.821 0 0 0-.725-.436H2.722c-.05 0-.1.001-.15.004a1.079 1.079 0 0 1 .154-2.146h9.965a.82.82 0 1 0 0-1.64H2.726a1.08 1.08 0 0 1 0-2.158H5.03a.821.821 0 1 0 0-1.64H2.674v-1.866h14.81v1.828h-5.546a.829.829 0 0 0-.245.038H8.428a.821.821 0 1 0 0 1.64h9.896a.821.821 0 0 0 .804-.99v-2.52h1.361c.763 0 1.48.296 2.02.836l1.587 1.587a4.755 4.755 0 0 0 3.384 1.401h.31v11.323h-2.983zm4.627 1.664V38.55c0-.03.025-.056.056-.056h5.287v14.83H29.49a.056.056 0 0 1-.056-.056zm6.987.056v-14.83h1.826v5.556c0 .085.012.167.036.244v8.979l.002.051H36.42zm2.176-24.835c0 .84-.326 1.631-.92 2.227l-1.585 1.589a4.48 4.48 0 0 0-1.315 3.183v1.366H29.49a1.7 1.7 0 0 0-1.7 1.696v.09h-.31a3.12 3.12 0 0 1-2.22-.92l-1.588-1.586a4.473 4.473 0 0 0-3.183-1.318h-1.364V29.52a1.7 1.7 0 0 0-1.7-1.697h-.085v-.313c0-.84.327-1.631.92-2.227l1.584-1.589a4.478 4.478 0 0 0 1.316-3.183v-1.37h5.29a1.7 1.7 0 0 0 1.7-1.698v-.09h.31c.838 0 1.627.327 2.22.92l1.588 1.587a4.475 4.475 0 0 0 3.183 1.318h1.361v5.3a1.7 1.7 0 0 0 1.7 1.697h.085v.313zm14.666-2.01a.056.056 0 0 1-.057.056H38.513a.056.056 0 0 1-.057-.056v-5.3h14.807v5.3zm0-6.94H38.456v-1.833h5.546a.815.815 0 0 0 .245-.038h9.015v1.87z"/>
</svg>
