<svg xmlns="http://www.w3.org/2000/svg" width="26" height="36" viewBox="0 0 26 36">
    <g fill="#1D4CA6" fill-rule="nonzero">
        <path d="M13.257 0C6.31 0 .657 5.678.657 12.656c0 2.358.65 4.66 1.881 6.655l10.002 16.19c.192.31.53.499.892.499h.008c.367-.003.705-.197.893-.513L24.08 19.14a12.684 12.684 0 0 0 1.777-6.484C25.857 5.678 20.205 0 13.257 0zm9.02 18.058l-8.86 14.861L4.322 18.2a10.569 10.569 0 0 1-1.58-5.544c0-5.815 4.724-10.56 10.514-10.56 5.79 0 10.507 4.745 10.507 10.56 0 1.907-.519 3.775-1.486 5.402z"/>
        <path d="M13.257 6.171A6.436 6.436 0 0 0 6.83 12.6a6.42 6.42 0 0 0 6.428 6.429c3.636 0 6.429-2.946 6.429-6.429a6.436 6.436 0 0 0-6.429-6.429zm0 10.729c-2.375 0-4.3-1.93-4.3-4.3 0-2.363 1.937-4.3 4.3-4.3 2.363 0 4.293 1.937 4.293 4.3 0 2.335-1.88 4.3-4.293 4.3z"/>
    </g>
</svg>
