<svg xmlns="http://www.w3.org/2000/svg" width="57" height="50" viewBox="0 0 57 50">
    <path fill="#1D4CA6" fill-rule="nonzero" d="M54.15 8.333H41.8V4.63C41.797 2.074 39.672.003 37.05 0h-17.1c-2.622.003-4.747 2.074-4.75 4.63v3.703H2.85C1.276 8.333 0 9.577 0 11.111v20.611c.006 1.175.765 2.22 1.9 2.614v12.886C1.9 48.756 3.176 50 4.75 50h47.5c1.574 0 2.85-1.244 2.85-2.778V34.337c1.135-.395 1.894-1.44 1.9-2.615v-20.61c0-1.535-1.276-2.779-2.85-2.779zM17.1 4.63c0-1.534 1.276-2.778 2.85-2.778h17.1c1.574 0 2.85 1.244 2.85 2.778v3.703H38V4.63a.938.938 0 0 0-.95-.926h-17.1a.938.938 0 0 0-.95.926v3.703h-1.9V4.63zm19 3.703H20.9V5.556h15.2v2.777zm17.1 38.89a.938.938 0 0 1-.95.925H4.75a.938.938 0 0 1-.95-.926V34.654l20.9 2.81v2.35c0 1.535 1.276 2.779 2.85 2.779h1.9c1.574 0 2.85-1.244 2.85-2.778v-2.351l20.9-2.81v12.568zm-22.8-7.408a.938.938 0 0 1-.95.926h-1.9a.938.938 0 0 1-.95-.926v-5.556c0-.511.425-.926.95-.926h1.9c.525 0 .95.415.95.926v5.556zm24.7-8.093a.934.934 0 0 1-.817.918l-.263.035-21.72 2.92v-1.336c0-1.534-1.276-2.778-2.85-2.778h-1.9c-1.574 0-2.85 1.244-2.85 2.778v1.335L2.718 32.64a.934.934 0 0 1-.818-.918v-20.61c0-.512.425-.927.95-.927h51.3c.525 0 .95.415.95.926v20.611z"/>
</svg>
